# xmcd
#
# Track frame offsets: 
#        150
#        33880
#        63553
#        90898
#        120239
#        134743
#        152588
#        171827
#        198460
#        225138
#
# Disc length: 3450 seconds
#
# Revision: 1
# Processed by: cddbd v1.5.1PL0 Copyright (c) Steve Scherf et al.
# Submitted via: ExactAudioCopy v0.95a4
#
DISCID=720d780a
DTITLE=Various Artist - Czesslove - Endless Thoughts [CD1 Image Of The Wind)
DYEAR=2005
DGENRE=House
TTITLE0=Blue Haze - Amber Glow
TTITLE1=2 Rare People - Ocean
TTITLE2=Spiritchaser vs Jussi Pekka - Ever Increasing Circles vs Subwa
TTITLE2=y
TTITLE3=Blue Haze - Spacious
TTITLE4=Bart Van Wissen - Inside Out
TTITLE5=True To Nature - Lusty
TTITLE6=Gothek D.C. - Velvet Skin
TTITLE7=Duran and Aytek - First Sight
TTITLE8=Micah - Acandavi (Chris Micali Remix)
TTITLE9=Bart Van Wissen - Electric
EXTD=
EXTT0=
EXTT1=
EXTT2=
EXTT3=
EXTT4=
EXTT5=
EXTT6=
EXTT7=
EXTT8=
EXTT9=
PLAYORDER=
